# xmcd
#
# Track frame offsets: 
#        182
#        17272
#        32545
#        57802
#        72167
#        90922
#        119690
#        138867
#        159915
#
# Disc length: 2333 seconds
#
# Revision: 2
# Processed by: cddbd v1.5.1PL2 Copyright (c) Steve Scherf et al.
# Submitted via: ExactAudioCopy v0.95b3
#
DISCID=61091b09
DTITLE=Pee Wee Ellis - Blues Mission
DYEAR=1993
DGENRE=
TTITLE0=Zig Zag
TTITLE1=Gotcha!
TTITLE2=Cold Sweat/Mother Popcorn
TTITLE3=Yellin' Blue
TTITLE4=One Mint Julep
TTITLE5=Texas Sweet
TTITLE6=Ham
TTITLE7=Fort Apache
TTITLE8=Blues Mission
EXTD=
EXTT0=
EXTT1=
EXTT2=
EXTT3=
EXTT4=
EXTT5=
EXTT6=
EXTT7=
EXTT8=
PLAYORDER=
